<svg width="41" height="40" viewBox="0 0 41 40" fill="none" xmlns="http://www.w3.org/2000/svg">
<path d="M34.3166 2.5H6.75928C5.76264 2.5 4.80683 2.89509 4.1021 3.59835C3.39738 4.30161 3.00146 5.25544 3.00146 6.25L3.00146 33.75C3.00146 34.7446 3.39738 35.6984 4.1021 36.4017C4.80683 37.1049 5.76264 37.5 6.75928 37.5H17.5043V25.6008H12.5721V20H17.5043V15.7313C17.5043 10.8758 20.4009 8.19375 24.8375 8.19375C26.9622 8.19375 29.184 8.57188 29.184 8.57188V13.3375H26.736C24.3239 13.3375 23.5716 14.8312 23.5716 16.3633V20H28.9562L28.095 25.6008H23.5716V37.5H34.3166C35.3132 37.5 36.269 37.1049 36.9737 36.4017C37.6785 35.6984 38.0744 34.7446 38.0744 33.75V6.25C38.0744 5.25544 37.6785 4.30161 36.9737 3.59835C36.269 2.89509 35.3132 2.5 34.3166 2.5Z" fill="white"/>
</svg>
