<svg width="41" height="40" viewBox="0 0 41 40" fill="none" xmlns="http://www.w3.org/2000/svg">
<path d="M20.7225 11.0156C15.7434 11.0156 11.7273 15.0234 11.7273 19.9922C11.7273 24.9609 15.7434 28.9687 20.7225 28.9687C25.7016 28.9687 29.7178 24.9609 29.7178 19.9922C29.7178 15.0234 25.7016 11.0156 20.7225 11.0156ZM20.7225 25.8281C17.5049 25.8281 14.8744 23.2109 14.8744 19.9922C14.8744 16.7734 17.4971 14.1562 20.7225 14.1562C23.948 14.1562 26.5706 16.7734 26.5706 19.9922C26.5706 23.2109 23.9401 25.8281 20.7225 25.8281ZM32.1839 10.6484C32.1839 11.8125 31.2444 12.7422 30.0857 12.7422C28.9193 12.7422 27.9876 11.8047 27.9876 10.6484C27.9876 9.49219 28.9271 8.55469 30.0857 8.55469C31.2444 8.55469 32.1839 9.49219 32.1839 10.6484ZM38.1415 12.7734C38.0085 9.96875 37.3665 7.48437 35.3075 5.4375C33.2564 3.39062 30.7668 2.75 27.9563 2.60937C25.0597 2.44531 16.3776 2.44531 13.4809 2.60937C10.6782 2.74219 8.18865 3.38281 6.12968 5.42969C4.07072 7.47656 3.43658 9.96094 3.29567 12.7656C3.13126 15.6562 3.13126 24.3203 3.29567 27.2109C3.42876 30.0156 4.07072 32.5 6.12968 34.5469C8.18865 36.5938 10.6704 37.2344 13.4809 37.375C16.3776 37.5391 25.0597 37.5391 27.9563 37.375C30.7668 37.2422 33.2564 36.6016 35.3075 34.5469C37.3587 32.5 38.0006 30.0156 38.1415 27.2109C38.306 24.3203 38.306 15.6641 38.1415 12.7734ZM34.3994 30.3125C33.7887 31.8437 32.6066 33.0234 31.0643 33.6406C28.7548 34.5547 23.2747 34.3437 20.7225 34.3437C18.1703 34.3437 12.6824 34.5469 10.3807 33.6406C8.84627 33.0312 7.66412 31.8516 7.04565 30.3125C6.12968 28.0078 6.34106 22.5391 6.34106 19.9922C6.34106 17.4453 6.13751 11.9687 7.04565 9.67187C7.65629 8.14062 8.83844 6.96094 10.3807 6.34375C12.6902 5.42969 18.1703 5.64062 20.7225 5.64062C23.2747 5.64062 28.7627 5.4375 31.0643 6.34375C32.5988 6.95312 33.7809 8.13281 34.3994 9.67187C35.3154 11.9766 35.104 17.4453 35.104 19.9922C35.104 22.5391 35.3154 28.0156 34.3994 30.3125Z" fill="white"/>
</svg>
