<svg width="41" height="40" viewBox="0 0 41 40" fill="none" xmlns="http://www.w3.org/2000/svg">
<path d="M34.6706 2.5H7.11328C5.03866 2.5 3.35547 4.17969 3.35547 6.25V33.75C3.35547 35.8203 5.03866 37.5 7.11328 37.5H34.6706C36.7452 37.5 38.4284 35.8203 38.4284 33.75V6.25C38.4284 4.17969 36.7452 2.5 34.6706 2.5ZM30.8423 14.9063C30.858 15.125 30.858 15.3516 30.858 15.5703C30.858 22.3438 25.691 30.1484 16.2495 30.1484C13.3372 30.1484 10.6362 29.3047 8.36589 27.8516C8.78081 27.8984 9.18008 27.9141 9.60283 27.9141C12.0063 27.9141 14.214 27.1016 15.9755 25.7266C13.7208 25.6797 11.8262 24.2031 11.1764 22.1719C11.9671 22.2891 12.6795 22.2891 13.4937 22.0781C11.1451 21.6016 9.38363 19.5391 9.38363 17.0469V16.9844C10.0647 17.3672 10.8633 17.6016 11.7009 17.6328C10.9967 17.1653 10.4194 16.5311 10.0205 15.7868C9.62159 15.0425 9.41356 14.2113 9.41494 13.3672C9.41494 12.4141 9.66546 11.5391 10.1117 10.7812C12.6404 13.8906 16.4374 15.9219 20.6962 16.1406C19.9681 12.6641 22.5751 9.84375 25.7066 9.84375C27.1863 9.84375 28.5172 10.4609 29.4566 11.4609C30.6153 11.2422 31.727 10.8125 32.7134 10.2266C32.3298 11.4141 31.5234 12.4141 30.4587 13.0469C31.4921 12.9375 32.4942 12.6484 33.418 12.25C32.7212 13.2734 31.8444 14.1797 30.8423 14.9063Z" fill="white"/>
</svg>
