<svg width="100" height="59" viewBox="0 0 100 59" fill="none" xmlns="http://www.w3.org/2000/svg">
<g clip-path="url(#clip0_3_2)">
<path d="M6.1306 0.308349C3.66957 -0.676064 1.62299 0.800554 4.65398 3.26159C7.68497 5.72262 29.2643 19.5044 29.2643 19.5044L35.663 25.9031L22.6415 29.5324C22.6415 29.5324 16.4669 20.4888 14.0059 19.0122C11.5449 17.5356 10.0683 18.0278 10.0683 19.5044C10.0683 20.981 10.5605 27.3797 10.5605 27.3797C10.5605 27.3797 5.63839 22.9499 3.66956 21.9654C1.70074 20.981 -0.760297 21.9654 0.224117 23.4421C1.20853 24.9187 7.60722 33.7784 7.60722 33.7784C7.60722 33.7784 6.23081 34.1884 5.90648 34.4545C5.58215 34.7205 5.41427 35.0972 5.41427 35.4389C5.41427 35.8342 5.41427 35.9311 5.90648 36.2363H9.84414C9.84414 36.2363 14.7222 42.4543 15.4825 43.1303C16.2428 43.8064 16.9591 44.1147 17.9436 43.1303C18.928 42.1459 16.735 36.2394 16.735 36.2394H26.5792H44.5227L49.937 40.1771C49.937 40.1771 51.9058 54.9433 52.398 56.9121C52.8902 58.881 55.3513 59.8654 56.8279 56.9121C58.3045 53.9589 67.6564 33.7784 67.6564 33.7784C67.6564 33.7784 92.9831 28.1803 96.2044 26.8875C99.4258 25.5948 100.902 22.6415 99.4258 20.6727C97.9491 18.7039 93.5193 18.2116 93.5193 18.2116C93.5193 18.2116 91.5505 17.0434 89.5816 16.5512C87.6128 16.059 83.6751 16.059 82.1985 16.5512C80.7219 17.0434 71.37 19.1961 71.37 19.1961L60.7655 21.4732L56.8279 19.9966C56.8279 19.9966 8.59163 1.29276 6.1306 0.308349Z" fill="white"/>
</g>
<defs>
<clipPath id="clip0_3_2">
<rect width="100" height="58.78" fill="white"/>
</clipPath>
</defs>
</svg>
